<svg id="visual" viewBox="0 0 2000 1000" width="2000" height="1000" xmlns="http://www.w3.org/2000/svg" xmlns:xlink="http://www.w3.org/1999/xlink" version="1.1"><path d="M0 191L30.3 199.3C60.7 207.7 121.3 224.3 182 207.7C242.7 191 303.3 141 363.8 127.7C424.3 114.3 484.7 137.7 545.2 139.3C605.7 141 666.3 121 727 131C787.7 141 848.3 181 909 204.3C969.7 227.7 1030.3 234.3 1091 216C1151.7 197.7 1212.3 154.3 1273 157.7C1333.7 161 1394.3 211 1454.8 219.3C1515.3 227.7 1575.7 194.3 1636.2 179.3C1696.7 164.3 1757.3 167.7 1818 179.3C1878.7 191 1939.3 211 1969.7 221L2000 231L2000 0L1969.7 0C1939.3 0 1878.7 0 1818 0C1757.3 0 1696.7 0 1636.2 0C1575.7 0 1515.3 0 1454.8 0C1394.3 0 1333.7 0 1273 0C1212.3 0 1151.7 0 1091 0C1030.3 0 969.7 0 909 0C848.3 0 787.7 0 727 0C666.3 0 605.7 0 545.2 0C484.7 0 424.3 0 363.8 0C303.3 0 242.7 0 182 0C121.3 0 60.7 0 30.3 0L0 0Z" fill="#6198ff"></path><path d="M0 331L30.3 337.7C60.7 344.3 121.3 357.7 182 337.7C242.7 317.7 303.3 264.3 363.8 251C424.3 237.7 484.7 264.3 545.2 267.7C605.7 271 666.3 251 727 254.3C787.7 257.7 848.3 284.3 909 301C969.7 317.7 1030.3 324.3 1091 314.3C1151.7 304.3 1212.3 277.7 1273 294.3C1333.7 311 1394.3 371 1454.8 377.7C1515.3 384.3 1575.7 337.7 1636.2 321C1696.7 304.3 1757.3 317.7 1818 319.3C1878.7 321 1939.3 311 1969.7 306L2000 301L2000 229L1969.7 219C1939.3 209 1878.7 189 1818 177.3C1757.3 165.7 1696.7 162.3 1636.2 177.3C1575.7 192.3 1515.3 225.7 1454.8 217.3C1394.3 209 1333.7 159 1273 155.7C1212.3 152.3 1151.7 195.7 1091 214C1030.3 232.3 969.7 225.7 909 202.3C848.3 179 787.7 139 727 129C666.3 119 605.7 139 545.2 137.3C484.7 135.7 424.3 112.3 363.8 125.7C303.3 139 242.7 189 182 205.7C121.3 222.3 60.7 205.7 30.3 197.3L0 189Z" fill="#3c80ff"></path><path d="M0 491L30.3 519.3C60.7 547.7 121.3 604.3 182 586C242.7 567.7 303.3 474.3 363.8 472.7C424.3 471 484.7 561 545.2 587.7C605.7 614.3 666.3 577.7 727 549.3C787.7 521 848.3 501 909 519.3C969.7 537.7 1030.3 594.3 1091 627.7C1151.7 661 1212.3 671 1273 656C1333.7 641 1394.3 601 1454.8 572.7C1515.3 544.3 1575.7 527.7 1636.2 529.3C1696.7 531 1757.3 551 1818 574.3C1878.7 597.7 1939.3 624.3 1969.7 637.7L2000 651L2000 299L1969.7 304C1939.3 309 1878.7 319 1818 317.3C1757.3 315.7 1696.7 302.3 1636.2 319C1575.7 335.7 1515.3 382.3 1454.8 375.7C1394.3 369 1333.7 309 1273 292.3C1212.3 275.7 1151.7 302.3 1091 312.3C1030.3 322.3 969.7 315.7 909 299C848.3 282.3 787.7 255.7 727 252.3C666.3 249 605.7 269 545.2 265.7C484.7 262.3 424.3 235.7 363.8 249C303.3 262.3 242.7 315.7 182 335.7C121.3 355.7 60.7 342.3 30.3 335.7L0 329Z" fill="#0066ff"></path><path d="M0 821L30.3 824.3C60.7 827.7 121.3 834.3 182 839.3C242.7 844.3 303.3 847.7 363.8 842.7C424.3 837.7 484.7 824.3 545.2 817.7C605.7 811 666.3 811 727 814.3C787.7 817.7 848.3 824.3 909 822.7C969.7 821 1030.3 811 1091 809.3C1151.7 807.7 1212.3 814.3 1273 832.7C1333.7 851 1394.3 881 1454.8 887.7C1515.3 894.3 1575.7 877.7 1636.2 864.3C1696.7 851 1757.3 841 1818 829.3C1878.7 817.7 1939.3 804.3 1969.7 797.7L2000 791L2000 649L1969.7 635.7C1939.3 622.3 1878.7 595.7 1818 572.3C1757.3 549 1696.7 529 1636.2 527.3C1575.7 525.7 1515.3 542.3 1454.8 570.7C1394.3 599 1333.7 639 1273 654C1212.3 669 1151.7 659 1091 625.7C1030.3 592.3 969.7 535.7 909 517.3C848.3 499 787.7 519 727 547.3C666.3 575.7 605.7 612.3 545.2 585.7C484.7 559 424.3 469 363.8 470.7C303.3 472.3 242.7 565.7 182 584C121.3 602.3 60.7 545.7 30.3 517.3L0 489Z" fill="#0059dd"></path><path d="M0 1001L30.3 1001C60.7 1001 121.3 1001 182 1001C242.7 1001 303.3 1001 363.8 1001C424.3 1001 484.7 1001 545.2 1001C605.7 1001 666.3 1001 727 1001C787.7 1001 848.3 1001 909 1001C969.7 1001 1030.3 1001 1091 1001C1151.7 1001 1212.3 1001 1273 1001C1333.7 1001 1394.3 1001 1454.8 1001C1515.3 1001 1575.7 1001 1636.2 1001C1696.7 1001 1757.3 1001 1818 1001C1878.7 1001 1939.3 1001 1969.7 1001L2000 1001L2000 789L1969.7 795.7C1939.3 802.3 1878.7 815.7 1818 827.3C1757.3 839 1696.7 849 1636.2 862.3C1575.7 875.7 1515.3 892.3 1454.8 885.7C1394.3 879 1333.7 849 1273 830.7C1212.3 812.3 1151.7 805.7 1091 807.3C1030.3 809 969.7 819 909 820.7C848.3 822.3 787.7 815.7 727 812.3C666.3 809 605.7 809 545.2 815.7C484.7 822.3 424.3 835.7 363.8 840.7C303.3 845.7 242.7 842.3 182 837.3C121.3 832.3 60.7 825.7 30.3 822.3L0 819Z" fill="#004cbb"></path></svg>